<?xml version="1.0" encoding="UTF-8" standalone="no"?>
<!-- Created with Inkscape (http://www.inkscape.org/) -->

<svg
   version="1.1"
   id="svg1"
   width="619"
   height="619"
   viewBox="0 0 619 619"
   xmlns="http://www.w3.org/2000/svg"
   xmlns:svg="http://www.w3.org/2000/svg">
  <defs
     id="defs1" />
  <g
     id="g1">
    <path
       style="fill:#2c3094;fill-opacity:1;stroke-width:0.769919"
       d="m 308.35266,471.68889 c -28.65068,-15.9323 -49.96975,-31.54811 -68.95624,-50.50912 -19.74229,-19.7158 -31.73917,-37.82838 -38.40065,-57.97632 -4.48127,-13.55377 -4.32844,-9.7885 -4.81236,-118.5616 l -0.44615,-100.28199 h 120.11762 120.11764 l 0.56317,64.09578 c 0.65385,74.41471 0.17258,135.83803 -1.11753,142.62754 -6.30132,33.16235 -35.2749,70.57702 -77.60001,100.20784 -11.25929,7.88237 -39.36871,24.92701 -41.06206,24.89871 -0.1756,-0.003 -3.95715,-2.02832 -8.40343,-4.50084 z m 18.47806,-7.19403 c 21.42071,-12.39773 42.98121,-28.02347 57.26709,-41.50371 l 6.06745,-5.72529 -2.47691,-4.98929 c -1.3623,-2.7441 -5.27238,-9.88888 -8.68907,-15.87728 l -6.21217,-10.888 -3.92269,-0.49861 c -5.94012,-0.75506 -11.34879,-3.75597 -16.18564,-8.98035 -4.8331,-5.22034 -5.60934,-7.17056 -1.65295,-4.15287 3.17047,2.41824 12.45986,6.48594 14.87829,6.51503 0.95278,0.0115 1.73232,-0.3921 1.73232,-0.89679 0,-1.28783 -5.80109,-10.9124 -7.37378,-12.23382 -0.71485,-0.60064 -4.11207,-1.9943 -7.54936,-3.09702 l -6.24964,-2.00496 4.812,-0.59672 c 5.2314,-0.64875 5.91305,-1.56292 3.61346,-4.84605 -0.83706,-1.19507 -1.98438,-1.71115 -3.80416,-1.71115 -1.43309,0 -2.81975,-0.34646 -3.08146,-0.76992 -0.26171,-0.42345 0.15092,-0.77522 0.91696,-0.7817 0.76604,-0.006 1.8851,-0.32339 2.4868,-0.70422 0.93233,-0.5901 0.90389,-0.98257 -0.19248,-2.65584 -1.61534,-2.46532 -1.61048,-2.52319 0.25336,-3.0106 0.84691,-0.22147 1.53984,-0.78157 1.53984,-1.24467 0,-1.03402 -2.49971,-1.11363 -3.50314,-0.11158 -0.46162,0.461 -1.71068,-0.95901 -3.38617,-3.84959 -1.46011,-2.51901 -3.08223,-4.58002 -3.60469,-4.58002 -2.46418,0 -10.17131,15.25305 -11.1309,22.02897 -0.75743,5.3485 0.0292,11.04897 2.14736,15.56144 1.36575,2.90951 9.59638,11.68483 13.70314,14.60997 l 2.30976,1.64518 -3.07968,0.0169 c -6.85975,0.0376 -15.91249,-6.58385 -20.12727,-14.72166 -1.87267,-3.61571 -2.16611,-5.15908 -2.44233,-12.84577 -0.4833,-13.4491 1.18395,-19.60631 8.85267,-32.69312 l 3.52363,-6.01315 2.13671,3.74122 c 3.42694,6.00036 4.08227,6.23061 6.71307,2.35868 3.49271,-5.14049 7.88784,-12.91773 7.88784,-13.95766 0,-0.5162 -1.81103,-2.05226 -4.0245,-3.41346 -4.67349,-2.87403 -4.27071,-3.09288 -9.28076,5.04264 l -3.45639,5.61261 -5.95953,-10.29911 c -6.38881,-11.04101 -10.75376,-17.47937 -11.8503,-17.47937 -0.37403,0 -0.93982,0.60631 -1.2573,1.34736 -0.31748,0.74104 -0.74411,40.29151 -0.94807,87.88992 -0.36155,84.37324 -0.33467,86.52878 1.07229,85.99245 0.79374,-0.30255 5.08102,-2.6556 9.5273,-5.22899 z m -24.68665,-18.44711 6.20859,-2.43022 0.0702,-3.15169 c 0.59509,-26.73256 1.13639,-34.30492 2.5248,-35.32015 0.80232,-0.58667 1.28956,-1.68877 1.118,-2.52881 -0.45839,-2.24443 -4.09606,-1.74711 -10.41422,1.42374 l -5.40387,2.71202 -1.06918,-2.36939 c -1.70747,-3.78388 -3.16086,-4.2401 -7.22207,-2.26701 -4.17024,2.02607 -4.90588,3.4527 -3.23708,6.27775 0.96872,1.63992 1.33967,5.39298 1.72275,17.42984 0.52318,16.43871 1.07635,19.68519 3.66289,21.49687 2.44655,1.71364 5.13566,1.42931 12.03924,-1.27295 z m -50.94215,-38.95294 c 7.94123,-13.69242 11.12853,-20.07759 10.51649,-21.06789 -0.27068,-0.43797 -2.56237,-1.69414 -5.09265,-2.79149 -5.39817,-2.34112 -5.00194,-2.78572 3.47596,-3.90025 3.86741,-0.50843 6.58662,-1.29772 7.58568,-2.20186 1.52553,-1.38058 7.55873,-10.99373 7.55873,-12.0439 0,-0.29296 -2.1654,-0.54501 -4.81199,-0.56011 -10.03884,-0.0573 -19.73864,-1.333 -23.32083,-3.06711 -3.49409,-1.69146 -11.66848,-8.94535 -10.92186,-9.69197 0.21551,-0.21552 2.5674,0.52383 5.22641,1.64299 7.88552,3.31897 15.87473,5.02838 25.78221,5.51649 10.33724,0.50928 11.90607,0.09 13.86926,-3.70634 0.67079,-1.29717 1.10745,-2.44426 0.97037,-2.54909 -0.13709,-0.10484 -4.25682,-1.12363 -9.15494,-2.26398 -10.21432,-2.37802 -16.15246,-4.97214 -24.1273,-10.54017 l -5.62927,-3.93036 -9.15588,5.18017 c -13.4873,7.63076 -28.78883,16.62665 -28.78883,16.92516 0,1.33 4.82499,13.07643 7.89293,19.21534 4.49438,8.99317 8.75505,15.74239 14.3381,22.71262 4.51412,5.6357 16.13859,17.70814 17.05106,17.70814 0.32809,0 3.35945,-4.76388 6.73635,-10.58639 z m 46.16632,-20.70247 c 4.47865,-2.76968 9.31133,-9.71699 11.58541,-16.65478 2.04591,-6.24171 2.2672,-14.95983 0.55245,-21.76477 -1.29754,-5.14923 -9.58644,-22.21711 -10.77743,-22.19207 -0.42346,0.009 -1.90399,1.89449 -3.29008,4.19021 -1.38609,2.29572 -2.77194,4.25412 -3.07968,4.352 -0.30773,0.0979 -3.07914,-4.1463 -6.15869,-9.43151 -3.07955,-5.28522 -5.95508,-9.60948 -6.39007,-9.60948 -1.18249,0 -4.9388,2.06083 -5.92731,3.25191 -0.67266,0.8105 0.24295,2.81115 4.09815,8.95457 2.73038,4.35099 4.96433,8.07957 4.96433,8.28574 0,0.20617 -2.98431,-2.76115 -6.63181,-6.59405 -6.7628,-7.10653 -9.01714,-8.29519 -11.06119,-5.83225 -1.23139,1.48372 1.01187,4.31433 11.84039,14.94057 9.20007,9.02822 8.79077,8.96919 12.81002,1.84747 l 2.41423,-4.27778 2.37157,4.1479 c 6.18617,10.81962 7.11982,13.6352 7.11982,21.47107 0,5.66678 -0.32393,7.92119 -1.43814,10.00895 -2.78028,5.20958 -7.49514,10.61132 -12.05194,13.80774 -2.53167,1.77586 -4.60303,3.42738 -4.60303,3.67003 0,0.24266 2.27054,0.25894 5.04565,0.0362 3.72427,-0.29895 5.9784,-0.98185 8.60735,-2.60765 z m -25.69657,-3.05424 c 4.14794,-1.41334 12.04357,-8.19011 12.04357,-10.33692 0,-1.22478 -0.98619,-0.95201 -7.50671,2.07634 -7.46721,3.46801 -11.74127,6.5572 -11.74127,8.48632 0,1.36146 2.80411,1.2736 7.20441,-0.22574 z m 105.85884,0.39133 c 2.98893,-1.04195 3.14689,-2.7388 0.30736,-3.30181 -6.87959,-1.36405 -7.89167,-1.40823 -7.89167,-0.3445 0,1.75969 2.29808,4.49155 3.77836,4.49155 0.75971,0 2.47238,-0.38035 3.80595,-0.84524 z m 2.6389,-20.294 c 8.66882,-1.54543 15.95404,-6.35441 15.95404,-10.53128 0,-1.78221 -0.15694,-1.78002 -3.74837,0.0522 -5.3191,2.71361 -18.40418,5.98385 -29.55063,7.38535 -3.67673,0.4623 -4.5321,1.49229 -2.73322,3.29118 1.25918,1.25917 12.52921,1.14835 20.07818,-0.19744 z m -98.95162,-1.76586 c 0.20692,-0.63016 -0.50351,-0.9624 -2.05791,-0.9624 -1.6416,0 -2.37391,0.37204 -2.37391,1.20602 0,1.46719 3.94119,1.25054 4.43182,-0.24362 z m 148.01299,-9.43151 c 0.68087,-2.39857 1.08946,-11.93397 1.32791,-30.98925 l 0.34443,-27.52461 H 415.859 c -14.73149,0 -15.06915,0.036 -16.24756,1.73232 -4.84909,6.98028 -14.59665,19.6871 -18.99569,24.76261 -2.90407,3.35064 -5.27744,6.29558 -5.27419,6.54431 0.0105,0.8015 6.02435,3.91688 7.56101,3.91688 1.33103,0 8.29986,-5.5333 17.70644,-14.05903 1.83187,-1.66033 3.50852,-2.84096 3.72587,-2.6236 0.76521,0.76521 -6.40214,12.1503 -11.84183,18.81035 l -2.47553,3.0309 15.56415,8.88756 c 18.64244,10.64533 21.5785,12.16552 22.19457,11.49154 0.25909,-0.28344 0.91363,-2.07443 1.45454,-3.97998 z m -143.20578,0 c 0,-0.42345 -0.69293,-0.76992 -1.53984,-0.76992 -0.84691,0 -1.53984,0.34647 -1.53984,0.76992 0,0.42346 0.69293,0.76992 1.53984,0.76992 0.84691,0 1.53984,-0.34646 1.53984,-0.76992 z m 81.38071,-3.37969 c 7.50643,-2.56186 17.20112,-7.69782 19.93284,-10.55984 l 2.24059,-2.34746 -2.16021,-1.86546 c -1.18811,-1.026 -2.77941,-1.86545 -3.53622,-1.86545 -0.7568,0 -5.1549,2.36278 -9.77353,5.25061 -4.61865,2.88783 -10.89036,6.72711 -13.93714,8.53172 -3.04677,1.80461 -5.99172,3.82954 -6.54431,4.49983 -0.90355,1.09602 -0.53961,1.16986 3.6148,0.73338 2.54074,-0.26694 7.11416,-1.33674 10.16318,-2.37733 z m -82.92055,-0.39733 c 0,-1.34172 -23.08017,-20.02874 -25.52787,-20.66883 -1.62209,-0.42419 -7.69948,2.87621 -7.36617,4.00028 0.40471,1.36488 15.11806,10.94237 23.07159,15.0182 7.40139,3.79289 9.82245,4.19967 9.82245,1.65035 z m 73.91225,-7.87314 c 4.43645,-2.69253 14.55514,-11.54332 15.07711,-13.1879 0.43938,-1.38437 -0.63295,-2.83338 -2.12189,-2.86724 -1.35,-0.0307 -12.33372,10.03479 -16.16012,14.80915 -1.98042,2.47108 -2.11041,2.88679 -0.90187,2.88432 0.77663,-0.002 2.62468,-0.73883 4.10677,-1.63833 z m 5.38944,-19.09882 c 0,-1.16298 -0.49472,-1.58763 -1.84963,-1.58763 -1.49049,0 -2.73614,1.38276 -6.41557,7.12176 -7.10688,11.08497 -6.99995,11.50422 0.89586,3.51242 4.51852,-4.57346 7.36934,-8.07309 7.36934,-9.04655 z m -116.08043,11.76303 2.95487,-2.04773 -2.90198,-2.3793 c -1.59609,-1.30862 -6.29415,-5.41087 -10.44013,-9.11611 -9.36311,-8.36776 -10.87521,-8.75516 -7.39292,-1.89412 3.40996,6.71855 12.03644,17.48499 14.00963,17.48499 0.44862,0 2.14535,-0.92148 3.77053,-2.04773 z m 13.65298,-7.92751 c 1.72988,-1.09414 -0.0833,-4.05672 -11.32977,-18.51177 l -9.88382,-12.70367 -3.64194,-0.23546 -3.64195,-0.23545 2.46961,4.08505 c 6.44948,10.66827 21.19345,28.3481 23.62203,28.32572 0.70353,-0.006 1.78616,-0.33247 2.40584,-0.72442 z m 38.68779,-3.69083 c 1.32109,-1.51847 14.19629,-23.23424 14.9683,-25.24608 0.77156,-2.01063 -1.87299,-0.92961 -12.82218,5.24137 -11.99106,6.75817 -12.4248,7.11425 -11.53072,9.46587 0.99863,2.62657 6.9432,11.8862 7.6308,11.8862 0.31988,0 1.10908,-0.60631 1.7538,-1.34736 z m 73.49836,-1.9248 c 5.6268,-5.84495 19.49823,-24.02711 19.49823,-25.55757 0,-0.23496 -1.8773,-0.4272 -4.17176,-0.4272 -3.99406,0 -4.24686,0.12299 -5.93448,2.8872 -0.96949,1.58795 -4.7615,7.04476 -8.42668,12.12622 -8.23933,11.42313 -8.93279,12.67166 -7.53135,13.55971 1.97069,1.24877 3.42341,0.67611 6.56604,-2.58836 z m -101.65854,-0.18981 c 0.25501,-0.66457 -2.58902,-6.36694 -6.71989,-13.47359 l -7.16204,-12.32137 h -4.48787 -4.48788 l 1.10025,2.11728 c 1.87442,3.60706 12.62075,18.41954 15.74893,21.70794 3.08328,3.24119 5.24825,3.95092 6.0085,1.96974 z m 90.63542,-3.65978 c 2.11056,-2.7889 13.58312,-21.16612 13.58312,-21.75801 0,-0.20745 -2.57056,-0.37717 -5.71237,-0.37717 h -5.71237 l -5.0665,9.70664 c -2.78657,5.33865 -5.0665,10.15512 -5.0665,10.70326 0,0.91629 4.29824,4.18455 5.54274,4.21454 0.29604,0.007 1.39039,-1.11303 2.43188,-2.48926 z m -77.18912,-4.23456 c 2.07339,-1.1645 3.77015,-2.30076 3.77058,-2.52503 4.3e-4,-0.22426 -1.99306,-3.68889 -4.43,-7.69919 l -4.43078,-7.29144 -5.96313,-0.22486 c -3.27972,-0.12368 -5.96312,-0.089 -5.96312,0.0769 0,0.40641 7.44704,14.13649 9.37173,17.27862 1.86713,3.04816 2.81768,3.09603 7.64472,0.38496 z m 63.7499,-9.82241 c 2.58207,-4.02608 4.69469,-7.49072 4.69469,-7.69919 0,-0.20846 -7.44897,-0.37902 -16.55327,-0.37902 -9.71586,0 -16.55326,0.29636 -16.55326,0.71749 0,0.39462 0.95277,1.39388 2.11728,2.22057 1.89925,1.34831 21.00884,12.46032 21.4283,12.46032 0.0944,0 2.28418,-3.29407 4.86626,-7.32017 z m -117.26074,-9.05322 c 0.25628,-0.25629 -0.94062,-3.51978 -2.65978,-7.25219 -3.2996,-7.16365 -9.35075,-22.80172 -9.35075,-24.16527 0,-1.75843 1.5933,0.38592 5.05481,6.80306 5.42594,10.05891 13.23235,22.93266 14.58835,24.05805 1.20956,1.00384 8.84386,2.10726 8.84386,1.27824 0,-0.24697 -1.0712,-2.26579 -2.38044,-4.48627 -6.35017,-10.76991 -13.8205,-27.53635 -19.27453,-43.25984 l -1.82757,-5.26871 -11.11692,-6.47256 c -6.11431,-3.55991 -11.39788,-6.47256 -11.74127,-6.47256 -0.34339,0 -0.62435,14.48218 -0.62435,32.18263 0,24.69856 0.22381,32.41558 0.9624,33.18435 0.74503,0.77548 4.13556,0.92667 15.01131,0.66939 7.72689,-0.18279 14.25859,-0.54204 14.51488,-0.79832 z m 34.87884,0.26818 c 0.87834,-0.55611 0.29107,-2.52395 -3.1558,-10.57461 -2.32923,-5.44024 -5.58254,-13.3303 -7.22959,-17.53348 -2.87859,-7.346 -3.1599,-7.74877 -7.25954,-10.39391 -6.52805,-4.21198 -11.39079,-6.61855 -12.04718,-5.96217 -2.09399,2.09399 17.04757,41.75002 21.25768,44.04006 2.23206,1.2141 6.82213,1.4449 8.43443,0.42411 z m 44.34607,0.0471 3.84959,-0.52487 -7.31423,-4.29874 c -4.02283,-2.3643 -8.75658,-5.08957 -10.51946,-6.05615 l -3.20523,-1.75741 -2.66005,1.644 c -1.46301,0.9042 -2.79487,1.644 -2.95967,1.644 -0.16479,0 -0.18222,-1.47618 -0.0387,-3.2804 l 0.26089,-3.28041 -6.02974,-3.56365 c -5.88014,-3.47523 -16.75096,-9.12352 -17.55932,-9.12352 -1.135,0 0.16574,2.99658 6.18417,14.24672 3.62359,6.77352 7.29984,12.9218 8.16945,13.66285 1.37959,1.17564 3.2629,1.33876 14.7769,1.27991 7.2577,-0.0371 14.92814,-0.30364 17.04542,-0.59233 z m 58.33427,-8.00181 c 4.35765,-9.96755 10.5735,-25.68027 10.5735,-26.7282 0,-1.09635 -0.39122,-1.02091 -3.84597,0.74157 -1.65808,0.84589 -3.93345,2.68942 -5.05636,4.09671 -1.73537,2.17488 -15.18271,25.95688 -16.29557,28.81919 -0.27901,0.71763 1.09438,0.9624 5.40005,0.9624 h 5.77424 z m 17.44481,5.86568 c 4.86637,-6.18659 18.93855,-38.26596 20.49519,-46.72146 l 0.54075,-2.93725 -2.9541,1.23429 c -1.62475,0.67887 -3.57308,1.79448 -4.32963,2.47915 -0.75655,0.68466 -1.37554,1.03697 -1.37554,0.78292 0,-0.25405 1.52395,-6.45749 3.38655,-13.78539 1.86261,-7.32792 3.98456,-16.78812 4.71545,-21.02267 0.73088,-4.23456 1.58592,-7.98207 1.90007,-8.32781 1.74862,-1.92443 1.66799,24.92204 -0.0999,33.25986 -0.3935,1.85589 -0.54129,3.5485 -0.32842,3.76137 0.21288,0.21287 5.24837,-2.31148 11.18999,-5.60969 l 10.80294,-5.99674 v -38.76283 -38.76282 l -15.97582,7.8e-4 -15.97583,7.8e-4 -2.25626,4.0413 c -1.24094,2.22271 -9.06936,15.82105 -17.39647,30.21854 -21.06612,36.42307 -24.83545,43.29504 -24.25914,44.22751 0.27627,0.44703 2.08287,0.81277 4.01466,0.81277 h 3.51236 l -7.71257,6.09716 c -7.58248,5.99432 -9.68114,8.40814 -15.02927,17.28627 -2.82042,4.68204 -3.10809,4.72893 -3.98329,0.64939 -0.47834,-2.2297 -0.24524,-2.77705 1.96729,-4.61951 5.7394,-4.77945 10.54454,-10.07738 12.94447,-14.27203 1.40432,-2.45449 2.31413,-4.70201 2.02181,-4.99448 -0.29233,-0.29247 -6.0227,-0.65417 -12.73415,-0.80377 l -12.20265,-0.27201 -5.24911,-15.51134 -5.24912,-15.51133 -0.49591,6.92927 c -0.27275,3.8111 -0.5326,18.78663 -0.57744,33.27896 l -0.0815,26.34968 5.51018,3.86965 c 3.03061,2.12831 5.8057,3.86965 6.16689,3.86965 1.11299,0 3.20882,-2.87946 6.2207,-8.54662 3.20125,-6.02348 3.13668,-6.04452 5.22248,1.70154 1.80268,6.69466 3.93055,11.46459 5.11435,11.46459 1.32647,0 14.16992,-7.02224 21.91636,-11.98291 l 5.11067,-3.27278 3.26814,-8.34798 c 9.68607,-24.74164 15.29053,-48.45925 18.12158,-76.68901 0.28725,-2.86421 0.82784,-5.39652 1.20134,-5.62735 0.85673,-0.5295 0.85,0.33955 -0.0966,12.45552 -1.85331,23.72131 -3.38115,33.39116 -8.91323,56.4126 -1.86984,7.78126 -3.39971,14.45068 -3.39971,14.82095 0,1.37355 2.10547,0.55065 9.13327,-3.56965 3.96465,-2.32444 7.31369,-4.22624 7.44231,-4.22624 0.4771,0 -8.42469,20.04406 -14.32562,32.2568 -3.35476,6.94313 -6.09956,12.91963 -6.09956,13.28111 0,0.36148 1.70718,0.65725 3.79372,0.65725 3.18013,0 4.05147,-0.32768 5.38735,-2.02599 z m 14.04801,1.18569 c 2.79152,-1.49397 12.95713,-25.19471 12.95713,-30.20904 0,-1.41607 -0.1378,-1.477 -1.10782,-0.48986 -0.60929,0.62007 -5.08562,7.97005 -9.94738,16.33329 l -8.83957,15.20591 h 2.68377 c 1.47607,0 3.39032,-0.37814 4.25387,-0.8403 z m -71.73399,-5.56901 c 4.86974,-2.67611 8.85407,-5.26672 8.85407,-5.75692 0,-1.09431 -7.84008,-7.08175 -9.27299,-7.08175 -0.87744,0 -8.55535,12.57611 -10.04006,16.44521 -0.83393,2.17318 1.24794,1.45529 10.45898,-3.60654 z m -12.78604,1.34186 c 0.85445,-2.22668 0.52434,-21.75361 -0.37718,-22.31078 -0.46447,-0.28706 -2.8031,0.82159 -5.19695,2.46367 -5.93587,4.07175 -6.0172,5.55598 -0.78516,14.32817 3.95674,6.63398 5.43808,7.91957 6.35929,5.51894 z m 28.17264,-5.9039 c -0.0168,-2.47372 -1.16394,-3.96159 -2.62269,-3.40181 -1.98958,0.76347 -2.41477,2.91576 -0.8081,4.09059 2.10647,1.54029 3.44413,1.27174 3.43079,-0.68878 z m -45.15383,-5.23933 c 2.39794,-1.71713 4.35531,-3.7093 4.34972,-4.42704 -0.0191,-2.44993 -6.167,-12.57847 -7.47979,-12.32281 -0.79786,0.15539 -2.12612,2.9214 -3.79779,7.90867 -2.94544,8.78741 -3.08398,10.04797 -1.22343,11.13164 2.27858,1.32716 3.62943,0.94757 8.15129,-2.29046 z m -36.44583,-14.86521 c 0,-0.15349 -1.07084,-2.83858 -2.37964,-5.96687 -10.32054,-24.66812 -15.73191,-46.50562 -19.53423,-78.83014 l -0.99621,-8.46911 -0.0868,10.00895 c -0.13908,16.04433 3.1097,40.02188 8.1362,60.04915 4.1334,16.46881 4.85955,18.04877 9.64901,20.99411 3.73948,2.29964 5.21163,2.92501 5.21163,2.21391 z m 33.87645,-8.24066 c 0,-3.17207 -1.13324,-5.08902 -3.83418,-6.48573 -2.73418,-1.41389 -3.09509,-1.43607 -3.09509,-0.19017 0,1.34676 5.25877,9.03627 6.17981,9.03627 0.41221,0 0.74946,-1.06216 0.74946,-2.36037 z M 232.5053,235.28055 c -1.4166,-5.46629 -3.65045,-14.90743 -4.96412,-20.9803 -2.87687,-13.2993 -3.16657,-14.11748 -3.9095,-11.04156 -1.3557,5.61298 -0.5225,30.40677 1.20311,35.80124 0.48091,1.50338 7.23313,6.15936 8.93247,6.15936 1.1731,0 1.03806,-1.06347 -1.26196,-9.93874 z m 50.0556,-0.83925 -2.80675,-4.6204 h -4.99416 c -3.08908,0 -4.81504,0.28984 -4.52458,0.75981 0.25827,0.41789 3.65673,3.04176 7.55215,5.83081 8.17878,5.85589 9.25708,5.41081 4.77334,-1.97022 z m 18.56521,-5.39032 c 4.13208,0 3.87623,0.45244 10.60707,-18.7575 l 5.08859,-14.52295 v -22.68555 -22.68555 l -40.35719,0.25238 c -22.19645,0.1388 -40.59971,0.49515 -40.89612,0.79189 -0.66668,0.6674 2.27458,6.06787 20.13925,36.97787 13.25987,22.94262 21.25406,36.2198 23.6287,39.24379 1.09036,1.38851 8.40586,2.19281 15.07268,1.65716 1.85879,-0.14935 4.88145,-0.27154 6.71702,-0.27154 z"
       id="path2" />
    <path
       style="fill:#2c3094;fill-opacity:1;stroke-width:0.769919"
       d="m 322.21121,448.18728 c 0,-0.68703 0.32523,-1.24915 0.72274,-1.24915 1.15141,0 1.66069,-5.37576 2.21938,-23.42682 l 0.52251,-16.8825 5.7744,-2.133 c 10.89301,-4.02374 12.15543,-3.04069 13.02542,10.14295 0.38492,5.83293 0.89484,8.7641 1.60053,9.20024 0.84974,0.52517 0.80471,0.99249 -0.25085,2.60347 -1.64092,2.50437 -1.71368,10.28364 -0.1316,14.0701 1.52067,3.63946 1.46366,4.1158 -0.49256,4.1158 -0.90609,0 -2.09842,0.60631 -2.64962,1.34736 -0.79149,1.06409 -1.29493,1.16835 -2.39464,0.4959 -1.15918,-0.70882 -1.42455,-2.06311 -1.58409,-8.08415 -0.27106,-10.23066 -0.47383,-10.84336 -3.49189,-10.55166 l -2.47582,0.23929 0.0156,6.15935 c 0.009,3.38765 0.30599,7.11213 0.66091,8.27663 0.56211,1.84433 0.43603,2.11728 -0.97801,2.11728 -0.89282,0 -1.6233,0.29163 -1.6233,0.64805 0,0.35643 -1.47247,1.08514 -3.27216,1.61935 -1.79969,0.53422 -3.70524,1.32441 -4.23455,1.75598 -0.6969,0.56821 -0.9624,0.44007 -0.9624,-0.46447 z m 14.18053,-24.04414 c 0.98512,-0.37802 1.21785,-1.78546 1.21785,-7.36485 0,-7.40432 -0.75691,-9.87596 -3.02439,-9.87596 -1.97791,0 -2.36504,1.44931 -2.36504,8.85407 0,8.68139 0.54554,9.77818 4.17158,8.38674 z"
       id="path3" />
    <path
       style="fill:#2c3094;fill-opacity:1;stroke-width:0.136104"
       d="m 297.42244,442.06216 c -0.40486,-0.26751 -0.6592,-1.20677 -0.93003,-3.43441 -0.16749,-1.37774 -0.35031,-7.22727 -0.48278,-15.44778 -0.18031,-11.18859 -0.36258,-15.56106 -0.75217,-18.04387 -0.0556,-0.35424 0.0432,-0.22276 0.41108,0.54734 0.26634,0.55747 0.51004,1.03939 0.54157,1.07092 0.0315,0.0315 1.79051,-0.80273 3.90884,-1.85391 3.74858,-1.86016 6.23836,-2.95099 6.52071,-2.85687 0.0765,0.0255 -0.52341,0.31261 -1.33312,0.63804 -1.98024,0.79588 -5.89211,2.70962 -6.98439,3.41686 -1.99186,1.28971 -2.09103,1.67589 -0.754,2.93627 0.48359,0.45587 0.94449,1.00043 1.02421,1.21013 0.65205,1.71501 0.97239,6.13853 0.97123,13.41145 -0.002,11.56152 -0.89392,19.22994 -2.14115,18.40583 z"
       id="path4" />
    <path
       style="fill:#2c3094;fill-opacity:1;stroke-width:0.544415"
       d="m 313.37228,503.55042 c -1.11699,-0.41261 -6.99667,-3.38255 -13.06597,-6.59987 -33.08222,-17.53683 -57.08236,-35.04316 -81.29258,-59.29695 -24.36674,-24.41059 -38.26301,-47.04898 -46.19882,-75.26242 l -2.42578,-8.62414 -0.38985,-118.27419 -0.38986,-118.27418 h 147.01565 147.01564 l -0.21285,27.08465 c -0.11706,14.89656 -0.33182,64.93511 -0.47723,111.19679 -0.14754,46.93903 -0.50155,87.36127 -0.80102,91.46399 -1.6135,22.10504 -14.13194,50.32169 -32.44022,73.12048 -23.56769,29.34818 -60.56078,58.10291 -102.32909,79.54041 -8.78595,4.50938 -10.85649,5.0896 -14.00802,3.92543 z m 13.89763,-10.5764 c 41.07696,-21.01259 78.89634,-51.34817 101.88042,-81.72004 14.61769,-19.31626 24.29096,-41.44053 26.44387,-60.48122 0.84718,-7.49265 1.66185,-96.57375 1.50359,-164.41337 l -0.14669,-62.87995 -140.9563,-0.13714 -140.9563,-0.13715 0.36565,105.48147 c 0.20111,58.01481 0.59763,109.27877 0.88117,113.91991 1.27999,20.95145 8.42686,40.79481 22.05889,61.2467 7.08756,10.63334 13.26343,18.15594 23.40362,28.50707 20.44702,20.87237 39.90973,35.63741 70.7899,53.7035 11.98727,7.01301 21.42628,11.70104 23.55921,11.70104 1.20063,0 4.95202,-1.60855 11.17297,-4.79082 z"
       id="path5" />
    <path
       style="fill:#2c3094;fill-opacity:1;stroke-width:1.08883"
       d="M 229.72812,96.538092 C 217.07765,77.224484 201.65499,64.372364 180.26697,55.320789 c -4.42474,-1.872584 -8.28997,-3.654548 -8.58939,-3.959921 -1.01756,-1.037751 57.144,0.918075 60.7218,2.041922 4.29471,1.349038 11.81805,10.493877 10.0707,12.241227 -0.77183,0.771823 -4.932,0.378234 -13.29611,-1.257926 -6.69505,-1.309665 -12.44789,-2.106141 -12.78408,-1.769946 -0.92732,0.927323 2.62504,3.24515 15.17335,9.900233 6.28799,3.33488 14.38661,7.873046 17.99693,10.084813 9.72592,5.958334 12.40267,6.580095 28.32804,6.580095 h 14.42394 l 3.56141,-4.056229 c 4.64301,-5.288099 14.08546,-19.772563 14.08546,-21.606725 0,-2.312073 -1.1061,-2.39755 -11.97713,-0.925559 -16.08712,2.178275 -20.05292,1.991801 -23.62135,-1.110684 -2.48427,-2.159898 -2.83483,-3.015805 -1.8765,-4.581548 2.12405,-3.470322 7.71824,-4.03574 19.72034,-1.993178 6.10464,1.038912 11.86183,1.59634 12.79375,1.23873 2.99149,-1.147939 1.82268,-3.792157 -3.20534,-7.251526 -2.84751,-1.95914 -4.89973,-4.220758 -4.89973,-5.39967 0,-2.961762 5.80798,-7.366627 12.22638,-9.27269 7.45422,-2.213665 7.98154,-2.148874 15.53879,1.909218 8.7763,4.712705 9.16647,7.191072 2.09753,13.323559 -8.31286,7.211616 -5.02258,8.628953 12.18355,5.248243 10.10777,-1.986002 16.15744,-1.300196 18.26205,2.070228 0.93216,1.492808 0.6822,2.388507 -1.18868,4.259372 -3.24823,3.248231 -16.37494,4.021347 -26.79449,1.5781 -4.07944,-0.956575 -7.87674,-1.739228 -8.43843,-1.739228 -2.22739,0 -0.72439,3.69267 5.86061,14.398749 8.86797,14.41783 10.49603,15.378592 24.6942,14.572864 17.97324,-1.019959 28.07427,-4.832221 51.44723,-19.416884 13.60643,-8.490376 14.05345,-10.093314 1.90545,-6.832653 -3.29371,0.884069 -8.86568,1.613214 -12.38214,1.620322 l -6.39358,0.01292 1.80061,-2.449869 c 0.99033,-1.347427 2.77424,-3.975907 3.96423,-5.841066 1.85,-2.899633 3.01175,-3.49088 8.01463,-4.07887 10.25111,-1.204816 54.05421,-3.001334 56.24276,-2.306712 1.57164,0.498819 -1.13943,2.271288 -10.68777,6.987525 -20.01443,9.885796 -35.26868,22.598578 -43.82523,36.523655 -2.096,3.411062 -4.81032,7.75069 -6.03184,9.64362 l -2.22092,3.44168 -78.06249,0.27941 -78.06251,0.27941 z"
       id="path6" />
    <path
       style="fill:#2c3094;fill-opacity:1;stroke-width:0.544415"
       d="m 498.23047,383.18277 c -6.84766,-4.61148 -11.58504,-11.63979 -12.80397,-18.9958 -1.10545,-6.6712 1.38433,-18.86868 3.84824,-18.85258 1.32362,0.009 5.98176,3.89875 8.93816,7.46444 3.75929,4.53404 5.74896,8.89272 6.15786,13.48976 0.53563,6.02178 -1.30784,18.78232 -2.71341,18.78232 -0.34274,0 -1.88483,-0.84966 -3.42688,-1.88814 z"
       id="path7" />
    <path
       style="fill:#2c3094;fill-opacity:1;stroke-width:0.544415"
       d="m 505.13716,402.97806 c 0.0147,-3.58983 5.95193,-12.29994 10.70376,-15.70265 6.33067,-4.53329 17.83752,-9.55423 24.87951,-10.85601 5.33455,-0.98615 5.69636,-0.25516 2.78754,5.63185 -3.37835,6.83724 -8.88343,11.96695 -17.41615,16.2286 -4.90409,2.44934 -13.62698,5.23425 -17.74183,5.66434 -3.12589,0.32672 -3.218,0.29902 -3.21283,-0.96613 z"
       id="path8" />
    <path
       style="fill:#2c3094;fill-opacity:1;stroke-width:0.544415"
       d="m 489.81951,416.45003 c -8.78342,-3.61303 -16.17905,-9.99226 -19.65306,-16.95212 -1.28627,-2.57692 -3.76673,-9.74692 -4.45152,-12.86757 -0.55611,-2.53422 0.78775,-2.98117 4.71571,-1.56838 13.11623,4.71759 21.02384,11.92973 24.05405,21.9385 3.20826,10.59686 2.35003,12.33524 -4.66518,9.44957 z"
       id="path9" />
    <path
       style="fill:#2c3094;fill-opacity:1;stroke-width:0.544415"
       d="m 497.00391,435.7367 c -1.0349,-0.65492 0.94627,-3.31871 6.34881,-8.53635 5.67613,-5.48185 11.59972,-8.14094 22.7391,-10.20754 5.18689,-0.96227 17.64192,-2.21211 18.04342,-1.81062 0.41232,0.41232 -0.72803,2.42812 -3.24033,5.72792 -5.49729,7.22049 -17.39578,12.77021 -31.62104,14.74876 -5.11566,0.71152 -11.20755,0.75017 -12.26996,0.0778 z"
       id="path10" />
    <path
       style="fill:#2c3094;fill-opacity:1;stroke-width:0.544415"
       d="m 474.37239,444.8304 c -6.09515,-3.17671 -12.10087,-9.17135 -14.66162,-14.63457 -2.22838,-4.75414 -3.57629,-10.90367 -3.57629,-16.31602 v -3.90191 l 1.76173,0.35235 c 6.05644,1.21129 16.85284,10.27269 19.87424,16.68041 2.1733,4.60911 3.40713,10.3089 3.40713,15.73962 0,4.1884 -0.0546,4.3832 -1.22494,4.36701 -0.67371,-0.009 -3.18483,-1.03842 -5.58025,-2.28689 z"
       id="path11" />
    <path
       style="fill:#2c3094;fill-opacity:1;stroke-width:0.544415"
       d="m 250.93496,551.61126 -1.31607,-0.52607 1.86048,-1.92785 c 3.19534,-3.31106 10.92651,-8.87187 15.47085,-11.12776 5.91073,-2.93417 11.52116,-4.24888 21.35067,-5.00316 4.55658,-0.34966 8.19765,-0.72278 8.09127,-0.82917 -0.10638,-0.10638 -3.95699,-1.14326 -8.5569,-2.30417 -15.04196,-3.79624 -30.25538,-8.82991 -49.73394,-16.4555 -5.38691,-2.1089 -10.67054,-3.95188 -11.74141,-4.09551 -1.55645,-0.20876 -3.09426,0.29919 -7.66589,2.53211 -11.63342,5.68213 -24.23428,7.62685 -36.17013,5.58223 -7.18386,-1.23062 -12.9277,-3.0942 -12.60442,-4.0895 0.6099,-1.87772 15.10747,-7.39663 22.45738,-8.54905 6.75078,-1.05847 17.84654,-0.94968 21.68752,0.21265 1.75389,0.53075 3.34592,0.80798 3.53784,0.61606 0.48265,-0.48264 -0.83176,-1.3983 -8.35999,-5.8238 -3.59314,-2.11224 -9.29999,-5.52177 -12.68189,-7.57671 -3.38191,-2.05495 -6.42095,-3.73628 -6.75344,-3.73628 -0.33248,0 -3.20017,0.8335 -6.37263,1.85221 -17.61052,5.65495 -35.2849,4.48487 -47.37172,-3.13609 l -2.92571,-1.84471 3.01087,-1.12651 c 9.33899,-3.49416 22.80594,-4.87875 32.53559,-3.34511 3.11672,0.49128 11.31411,2.60682 13.80551,3.56285 2.29783,0.88177 0.21152,-1.30942 -7.88172,-8.27792 -15.38193,-13.24425 -15.30008,-13.18863 -16.78098,-11.40426 -1.6024,1.93078 -14.32208,2.99259 -23.71317,1.97952 -6.7271,-0.72569 -13.6572,-2.81143 -19.44276,-5.85166 -4.30103,-2.26013 -8.40837,-5.6865 -7.86689,-6.56262 0.67167,-1.08679 5.95122,-1.89045 14.31508,-2.17907 13.48435,-0.46531 23.74658,1.85731 31.6575,7.16497 2.0429,1.37063 3.88545,2.49206 4.09454,2.49206 1.14203,0 -0.0549,-2.1147 -3.62459,-6.40359 -8.05941,-9.6833 -14.28024,-19.04608 -13.30356,-20.02277 0.61519,-0.61519 1.46034,0.24388 4.48313,4.55697 8.90685,12.70881 26.04896,30.59393 36.27822,37.85068 22.01776,15.61962 38.02472,24.58359 58.75366,32.90231 19.40804,7.78863 35.25374,12.92651 53.35268,17.29928 11.51998,2.78327 17.56511,4.63829 21.3263,6.54423 l 2.62797,1.33169 2.85818,-1.44865 c 4.16519,-2.11112 9.51012,-3.82458 17.82959,-5.71575 9.24986,-2.10268 28.60959,-7.68 40.08507,-11.54807 20.79519,-7.00949 43.95371,-18.43436 63.17903,-31.1683 11.31537,-7.49477 17.70005,-12.81883 29.62666,-24.70508 11.2911,-11.25289 16.70127,-17.78302 21.52838,-25.98497 2.90149,-4.93007 3.77916,-6.01645 4.37731,-5.41829 0.81439,0.81438 -9.60572,18.18184 -15.18359,25.30689 -1.48471,1.89655 -2.58726,3.56049 -2.45009,3.69765 0.13716,0.13717 2.69261,-0.73566 5.67878,-1.93961 8.1746,-3.29581 13.42195,-4.4228 22.19935,-4.7678 7.37207,-0.28976 18.73854,0.77901 20.84969,1.96047 1.90576,1.06651 -10.17554,8.56701 -18.04758,11.20457 -7.55432,2.53111 -23.08474,2.47179 -32.85354,-0.12548 l -3.37509,-0.89734 -2.0205,1.4376 c -2.9084,2.06936 -18.72229,16.68942 -18.72229,17.3089 0,0.70417 -0.21979,0.73265 8.71065,-1.12902 12.60906,-2.62853 21.10026,-2.32206 33.0721,1.19367 3.9999,1.17465 5.62751,2.26787 4.71445,3.16659 -0.98424,0.96879 -7.35195,3.86279 -12.30553,5.59261 -4.92814,1.72095 -5.30896,1.76873 -14.04831,1.76275 -9.65453,-0.007 -15.54118,-0.94328 -23.99203,-3.81761 -2.18012,-0.7415 -4.26621,-1.34819 -4.63575,-1.34819 -0.36955,0 -5.1049,2.68203 -10.52299,5.96007 -5.41809,3.27803 -11.56497,6.86068 -13.65974,7.96145 -2.09476,1.10076 -3.80866,2.24768 -3.80866,2.54869 0,0.35947 1.16778,0.38304 3.4026,0.0687 1.87142,-0.26325 7.93485,-0.47014 13.47427,-0.45975 8.69883,0.0163 10.64206,0.18174 14.25617,1.21374 4.53285,1.29433 13.15569,4.85913 15.5526,6.42964 l 1.48917,0.97575 -3.32599,1.54739 c -5.63142,2.61998 -10.19299,3.2984 -20.07793,2.98609 -11.87111,-0.37507 -19.48723,-2.1539 -25.85972,-6.03981 -1.64686,-1.00424 -3.58865,-2.00871 -4.3151,-2.23214 -2.42395,-0.74554 -6.08079,-0.34956 -8.12983,0.88033 -1.09014,0.65432 -7.37178,3.34674 -13.9592,5.98314 -6.58743,2.63641 -11.73215,4.83316 -11.43272,4.88168 0.29943,0.0485 3.85174,0.0453 7.89402,-0.007 8.32102,-0.10802 14.60073,0.80609 20.77602,3.02431 8.0127,2.87823 17.86422,8.4618 17.87269,10.12974 0.006,1.25772 -4.13517,2.42745 -11.15575,3.15078 -9.02335,0.92969 -15.13585,-0.18281 -25.64465,-4.6674 -6.90229,-2.94554 -12.45686,-6.078 -14.32865,-8.08055 -0.72592,-0.77661 -1.58337,-1.41618 -1.90546,-1.42126 -0.95909,-0.0151 -31.58075,8.30201 -32.03683,8.70151 -0.23076,0.20212 3.56654,0.64657 8.43843,0.98766 9.75213,0.68277 12.0093,1.26378 19.45109,5.00684 6.51917,3.279 11.2268,6.51966 14.92977,10.27739 l 3.20184,3.24922 -3.15941,0.39473 c -4.32852,0.54082 -16.03268,-0.0684 -20.66556,-1.07568 -5.18969,-1.12833 -13.84075,-5.53665 -18.78233,-9.57091 -2.24571,-1.83338 -5.2688,-4.29736 -6.71797,-5.47552 -2.05522,-1.67088 -3.09867,-2.14212 -4.74321,-2.14212 -2.73147,0 -7.42842,1.77394 -10.92224,4.12511 -1.523,1.0249 -2.86484,1.86346 -2.98188,1.86346 -0.11703,0 -1.30892,-0.8367 -2.64864,-1.85934 -2.93365,-2.2393 -7.75615,-4.13024 -10.52385,-4.12649 -1.51213,0.002 -2.66831,0.5162 -4.59091,2.04156 -1.41338,1.12135 -4.07745,3.24026 -5.92015,4.70868 -3.88759,3.09798 -10.86638,7.19825 -15.25137,8.96068 -1.67943,0.675 -4.98676,1.57179 -7.3496,1.99287 -4.87295,0.8684 -17.2362,1.0025 -19.22252,0.20849 z"
       id="path12" />
    <path
       style="fill:#2c3094;fill-opacity:1;stroke-width:0.544415"
       d="m 453.13985,471.31459 c -6.55437,-3.40045 -12.27772,-10.60725 -14.23102,-17.91958 -1.37836,-5.16004 -0.52372,-15.43943 1.56123,-18.77796 0.95521,-1.52953 2.83216,-1.36221 5.49465,0.48982 5.08407,3.53649 8.94723,8.88264 10.85472,15.02165 1.48846,4.79043 1.59757,13.14623 0.23188,17.75837 -1.1547,3.89962 -1.84159,4.50156 -3.91146,3.4277 z"
       id="path13" />
    <path
       style="fill:#2c3094;fill-opacity:1;stroke-width:0.544415"
       d="m 420.63204,490.66329 c -2.28798,-2.29419 -4.15246,-4.83383 -5.36959,-7.314 -1.78051,-3.6282 -1.86456,-4.0699 -1.86456,-9.79947 0,-6.66387 0.49816,-8.63453 4.24133,-16.77819 l 2.2015,-4.78962 2.69495,2.61195 c 5.75818,5.58084 8.55571,11.86882 8.55571,19.23057 0,5.47516 -0.67194,8.32392 -3.27124,13.86863 -3.37501,7.19945 -3.08836,7.081 -7.1881,2.97013 z"
       id="path14" />
    <path
       style="fill:#2c3094;fill-opacity:1;stroke-width:0.544415"
       d="m 387.01344,508.77257 c -3.35273,-4.55179 -4.61567,-8.41722 -4.57484,-14.00201 0.0281,-3.84398 0.33184,-5.69057 1.40963,-8.56994 1.93493,-5.16929 4.54708,-9.37343 8.17243,-13.15317 l 3.12145,-3.25437 1.36516,1.2825 c 2.70665,2.54277 5.16735,9.4136 5.17924,14.46164 0.0146,6.20161 -3.69004,15.10083 -9.1036,21.8685 -1.72661,2.15848 -3.26178,3.92508 -3.41149,3.92578 -0.14971,6.9e-4 -1.1208,-1.15083 -2.15798,-2.55893 z"
       id="path15" />
    <path
       style="fill:#2c3094;fill-opacity:1;stroke-width:0.544415"
       d="m 349.03045,523.20971 c -2.68004,-3.46606 -2.60969,-13.90494 0.13411,-19.89818 2.95399,-6.45238 14.26056,-18.06824 17.58714,-18.06824 1.49986,0 2.73927,2.38469 3.41267,6.56616 1.37244,8.52205 -3.83916,18.83417 -13.47912,26.67097 -5.90084,4.79709 -7.05231,5.50849 -7.6548,4.72929 z"
       id="path16" />
    <path
       style="fill:#2c3094;fill-opacity:1;stroke-width:0.544415"
       d="m 279.74346,520.93237 c -8.70999,-7.24136 -14.24299,-14.5849 -16.11586,-21.38937 -0.87624,-3.18356 -0.87807,-3.67897 -0.0295,-7.99777 0.99882,-5.08352 1.74507,-7.39348 2.38592,-7.38553 0.98419,0.0122 7.88219,5.69617 11.26607,9.28326 6.12429,6.49207 8.83077,11.58263 9.40021,17.68065 0.36462,3.90467 -0.59184,9.79988 -1.91796,11.82143 l -0.90628,1.38154 z"
       id="path17" />
    <path
       style="fill:#2c3094;fill-opacity:1;stroke-width:0.544415"
       d="m 241.14574,507.22101 c -10.28847,-11.22805 -11.85865,-23.65605 -4.56261,-36.11303 l 1.42348,-2.43039 3.3113,3.61864 c 10.21509,11.16324 12.31004,22.51201 6.34027,34.34656 -1.06708,2.1154 -2.21542,3.93319 -2.55187,4.03953 -0.33646,0.10635 -2.11871,-1.45124 -3.96057,-3.46131 z"
       id="path18" />
    <path
       style="fill:#2c3094;fill-opacity:1;stroke-width:0.544415"
       d="m 217.63364,536.95899 c -4.16441,-0.39914 -7.05259,-1.37983 -7.42332,-2.52061 -0.42622,-1.31152 11.6428,-8.13737 18.65164,-10.54877 1.63284,-0.56178 4.94196,-1.30993 7.35362,-1.66256 5.87753,-0.85941 19.42522,-0.36671 23.24894,0.8455 1.57199,0.49837 2.85817,0.99781 2.85817,1.10987 0,0.52235 -7.20792,5.23284 -10.61609,6.93778 -11.22274,5.6142 -20.25956,7.16276 -34.07296,5.83879 z"
       id="path19" />
    <path
       style="fill:#2c3094;fill-opacity:1;stroke-width:0.544415"
       d="m 208.56591,492.18459 c -1.91549,-2.06126 -5.54447,-11.32001 -6.36167,-16.23078 -0.44459,-2.67164 0.9669,-10.29657 2.45917,-13.28455 1.36904,-2.74124 5.95881,-8.13811 7.72487,-9.08328 0.96139,-0.51451 1.32464,-0.39439 2.32529,0.76894 1.76273,2.04928 4.62497,9.32993 5.5864,14.21006 1.10331,5.60024 0.36392,10.35855 -2.43822,15.69104 -1.92427,3.66188 -6.48365,9.1535 -7.59965,9.1535 -0.30683,0 -1.07011,-0.55122 -1.69619,-1.22493 z"
       id="path20" />
    <path
       style="fill:#2c3094;fill-opacity:1;stroke-width:0.544415"
       d="m 178.34558,471.2246 c -1.88071,-2.10712 -3.26862,-11.28065 -2.56024,-16.92218 0.75754,-6.03312 2.35936,-9.51149 6.30744,-13.69666 3.60507,-3.82156 8.85098,-8.17073 9.85544,-8.17073 1.76431,0 3.78792,11.53961 3.19823,18.2379 -0.59589,6.76872 -5.50463,14.60455 -12.25162,19.55729 -3.03224,2.22587 -3.38188,2.30229 -4.54925,0.99438 z"
       id="path21" />
    <path
       style="fill:#2c3094;fill-opacity:1;stroke-width:0.544415"
       d="m 152.7907,445.9093 c -0.95215,-1.69703 -0.77411,-7.68176 0.34457,-11.58264 1.46466,-5.1073 4.39091,-10.7297 7.22879,-13.88914 2.75525,-3.06746 8.35199,-6.99147 13.13393,-9.20852 3.7701,-1.74793 4.05198,-1.33288 3.67969,5.41799 -0.73626,13.35111 -6.86013,22.5337 -19.21452,28.81176 -3.93959,2.00195 -4.28512,2.03205 -5.17246,0.45055 z"
       id="path22" />
    <path
       style="fill:#2c3094;fill-opacity:1;stroke-width:0.544415"
       d="m 136.01839,416.60687 c 0,-2.29694 2.39766,-9.24309 4.77813,-13.84247 2.31785,-4.47839 8.12704,-10.50018 12.7909,-13.25902 4.18473,-2.47541 9.17973,-4.43697 11.67467,-4.5847 l 2.06016,-0.12198 0.16746,2.6233 c 0.67346,10.55002 -13.05503,26.06995 -26.5343,29.99679 -4.34712,1.26642 -4.93702,1.16941 -4.93702,-0.81192 z"
       id="path23" />
    <path
       style="fill:#2c3094;fill-opacity:1;stroke-width:0.544415"
       d="m 131.23573,383.57377 c -1.06831,-2.85897 -1.18008,-3.44751 -1.76392,-9.28758 -1.13413,-11.34441 0.75983,-16.59294 8.77626,-24.32081 2.64546,-2.55023 5.27823,-4.63677 5.85061,-4.63677 1.51666,0 3.31903,4.60965 4.04205,10.33776 1.02968,8.15765 -1.13945,15.81756 -6.18617,21.84531 -2.33679,2.79104 -8.30569,7.55923 -9.46277,7.55923 -0.38314,0 -0.94837,-0.67371 -1.25606,-1.49714 z"
       id="path24" />
    <path
       style="fill:#2c3094;fill-opacity:1;stroke-width:0.544415"
       d="m 119.14152,402.70679 c -16.20431,-4.7648 -26.408783,-12.53593 -29.940449,-22.8009 -0.600168,-1.74441 -1.091214,-3.2558 -1.091214,-3.35864 0,-0.46877 3.69079,-0.10909 6.726605,0.65553 12.749078,3.21109 19.047978,6.40102 25.716738,13.02366 4.83849,4.80502 8.38779,10.26245 8.38779,12.89712 0,1.45589 -4.011,1.2853 -9.79947,-0.41677 z"
       id="path25" />
    <path
       style="fill:#2c3094;fill-opacity:1;stroke-width:0.544415"
       d="m 122.1358,435.38363 c -14.00966,-2.16401 -25.495157,-8.01966 -30.285811,-15.44063 -2.901592,-4.49472 -2.061244,-5.13536 5.700124,-4.34551 10.532687,1.07188 19.865287,3.43318 26.218927,6.63383 3.62561,1.8264 10.43193,8.08036 12.03631,11.05951 0.8985,1.66841 0.92505,1.97208 0.21183,2.42295 -1.15142,0.72788 -8.10195,0.56258 -13.88138,-0.33015 z"
       id="path26" />
    <path
       style="fill:#2c3094;fill-opacity:1;stroke-width:0.0680519"
       d="m 374.41427,252.59089 c 2.03571,-5.15441 5.34861,-14.50116 7.13368,-20.12635 2.51865,-7.9369 4.70668,-16.82005 6.6629,-27.05062 1.77599,-9.28801 2.96414,-17.44766 3.78532,-25.99582 0.50597,-5.26686 0.95641,-8.49604 1.46997,-10.53812 0.16641,-0.66172 0.39078,-1.2336 0.51382,-1.30964 0.21684,-0.13401 0.40203,0.5035 0.5456,1.87815 0.11788,1.12869 0.11838,6.80995 7.8e-4,8.7787 -0.60192,10.07672 -1.80443,22.37037 -3.18183,32.5288 -0.73445,5.41667 -1.21689,8.18819 -2.30995,13.27012 -1.11233,5.1715 -2.10554,9.37489 -3.94763,16.70674 -1.66211,6.61553 -2.02484,8.10678 -2.58708,10.636 -0.20557,0.92476 -0.38922,1.75029 -0.40811,1.83451 -0.0348,0.15531 -0.30395,0.22573 -0.30395,0.0795 0,-0.19228 1.41073,-6.28646 2.96032,-12.78823 4.49288,-18.85116 6.07758,-27.26026 7.48304,-39.70828 0.91025,-8.06187 2.27606,-24.75678 2.30489,-28.17348 0.0133,-1.57497 -0.0432,-1.87143 -0.35622,-1.87143 -0.40321,0 -0.62709,0.48576 -0.95553,2.07326 -0.2662,1.28667 -0.43155,2.49353 -0.71825,5.24232 -1.98662,19.04688 -5.32486,36.23587 -10.24917,52.77424 -1.78867,6.00725 -4.08357,12.80045 -6.31992,18.7077 -1.54516,4.0815 -1.43175,3.81748 -1.6398,3.81748 h -0.18524 z"
       id="path30" />
    <path
       style="fill:#2c3094;fill-opacity:1;stroke-width:0.0340259"
       d="m 340.81491,447.20294 c -0.47917,-0.0869 -1.01684,-0.31055 -1.45747,-0.60613 -0.32271,-0.21648 -0.76029,-0.59949 -0.87443,-0.76539 -0.61566,-0.89483 -0.95405,-4.63596 -0.84548,-9.34731 0.0649,-2.81657 0.0819,-5.49806 0.0394,-6.19272 -0.0653,-1.0652 -0.19086,-1.70342 -0.39397,-2.00273 -0.0992,-0.1461 -0.0673,-0.16345 0.0556,-0.0303 0.52274,0.56599 0.78849,1.64061 0.96133,3.88747 0.0935,1.21582 0.15884,2.75495 0.24111,5.68233 0.12084,4.29966 0.23774,5.85164 0.52706,6.99722 0.24575,0.97306 0.6004,1.43498 1.41716,1.84581 0.51508,0.25908 0.87203,0.29882 1.22232,0.1361 0.1877,-0.0872 0.59909,-0.48235 0.9084,-0.87255 0.43839,-0.55303 1.29483,-1.06055 2.0836,-1.23472 0.0936,-0.0207 0.43043,-0.051 0.74857,-0.0673 0.8159,-0.042 1.07962,-0.13618 1.23344,-0.44067 0.0597,-0.11818 0.0766,-0.2094 0.0766,-0.41432 0,-0.51762 -0.19506,-1.15548 -0.86618,-2.83251 -0.24321,-0.60773 -0.48857,-1.28602 -0.5762,-1.59283 -0.35602,-1.2466 -0.59236,-2.74216 -0.7005,-4.43285 -0.0452,-0.70734 -0.0447,-2.61381 10e-4,-3.30432 0.0551,-0.83302 0.22204,-2.25119 0.26049,-2.21275 0.008,0.008 -0.01,0.2043 -0.0411,0.43517 -0.14894,1.10707 -0.0802,3.78955 0.15496,6.05106 0.23227,2.23323 0.64376,4.07445 1.13687,5.08688 0.20967,0.4305 0.33382,0.58751 0.64542,0.81628 0.48953,0.3594 0.73377,0.85218 0.73377,1.48047 0,0.55597 -0.20152,1.05744 -0.57579,1.43282 -0.25865,0.25941 -0.49268,0.38981 -0.82335,0.45875 -0.27559,0.0575 -0.4044,0.0435 -0.87447,-0.0947 -0.31316,-0.0921 -0.38678,-0.10158 -0.68052,-0.0877 -0.40422,0.0191 -0.62926,0.0994 -0.90667,0.32374 -0.22837,0.18466 -0.40836,0.43653 -0.54243,0.75905 -0.36467,0.87724 -1.26387,1.32467 -2.28851,1.13875 z"
       id="path31" />
    <path
       style="fill:#2c3094;fill-opacity:1;stroke-width:0.0340259"
       d="m 332.41614,445.10977 c -0.131,-0.0353 -0.3913,-0.11854 -0.57844,-0.18492 -0.18714,-0.0664 -0.36796,-0.12086 -0.40181,-0.12105 -0.0339,-1.9e-4 -0.0531,-0.0141 -0.0427,-0.0308 0.0327,-0.0529 0.4499,-0.10809 1.05301,-0.13937 0.59099,-0.0307 0.70516,-0.0497 0.89882,-0.14983 0.13876,-0.0718 0.2032,-0.17202 0.24116,-0.37519 0.0529,-0.28305 -4.9e-4,-0.57426 -0.31537,-1.72094 -0.26775,-0.97501 -0.50161,-3.40765 -0.59862,-6.22675 -0.019,-0.55207 -0.0346,-2.59069 -0.0347,-4.53027 l -1.7e-4,-3.5265 0.0766,-0.0183 c 0.0421,-0.0101 0.22202,-0.0293 0.3998,-0.0428 l 0.32325,-0.0244 -0.13135,0.1454 c -0.33736,0.37346 -0.49519,1.10035 -0.56536,2.60379 -0.044,0.9427 -0.044,5.31356 -7e-5,6.24376 0.10239,2.16583 0.32721,3.65091 0.66296,4.37923 0.16165,0.35068 0.25993,0.46399 0.50326,0.58022 0.60136,0.28725 0.81952,1.03129 0.54981,1.87509 -0.33447,1.04636 -1.09618,1.51821 -2.04003,1.26371 z"
       id="path32" />
    <path
       style="fill:#2c3094;fill-opacity:1;stroke-width:0.0340259"
       d="m 331.04588,446.61675 c -0.0425,-0.008 -0.3028,-0.0914 -0.57844,-0.18506 -0.40424,-0.1373 -0.56098,-0.17392 -0.81043,-0.18936 l -0.30927,-0.0191 0.41557,-0.21045 c 0.61624,-0.31208 0.93452,-0.56774 0.93452,-0.75065 0,-0.0443 0.0367,-0.12326 0.0816,-0.17545 l 0.0816,-0.0949 0.0379,0.13553 c 0.0208,0.0745 0.10068,0.25036 0.17745,0.39071 0.45236,0.82706 0.49284,0.93788 0.3858,1.05617 -0.0593,0.0655 -0.21437,0.0814 -0.41631,0.0426 z"
       id="path33" />
    <path
       style="fill:#2c3094;fill-opacity:1;stroke-width:0.0340259"
       d="m 322.48491,449.65324 c -0.5838,-0.2081 -0.91024,-1.11292 -0.67557,-1.87251 0.16448,-0.53239 0.55391,-1.00594 1.00608,-1.22343 0.14143,-0.068 0.29862,-0.17275 0.3493,-0.23273 0.70489,-0.83411 1.11419,-5.34092 1.4422,-15.88006 0.0592,-1.90256 0.12842,-4.55162 0.3769,-14.42675 0.13255,-5.26793 0.24579,-9.58284 0.25165,-9.58869 0.006,-0.006 1.14923,-0.4464 2.54085,-0.979 l 2.53021,-0.96835 0.54286,0.009 0.54285,0.009 -2.85662,1.05259 c -1.57114,0.57893 -2.86077,1.05519 -2.86584,1.05837 -0.005,0.003 -0.13102,3.94692 -0.27988,8.76388 -0.28954,9.36952 -0.30703,9.9176 -0.40973,12.84124 -0.39771,11.3209 -0.80393,16.34347 -1.45897,18.03864 -0.18086,0.46804 -0.33221,0.62301 -0.65987,0.67566 -0.36907,0.0593 -0.66769,0.63023 -0.66939,1.2798 -10e-4,0.45986 0.0937,0.72509 0.28176,0.78779 0.11668,0.0389 0.38651,-0.08 0.66221,-0.29169 0.10742,-0.0825 0.28326,-0.19953 0.39076,-0.26006 l 0.19546,-0.11007 -0.0202,0.2158 c -0.0422,0.44969 -0.14444,0.67714 -0.40912,0.91012 -0.15774,0.13885 -0.41307,0.2429 -0.58869,0.2399 -0.0481,-8.2e-4 -0.14669,-0.0226 -0.21916,-0.0485 z"
       id="path34" />
    <path
       style="fill:#2c3094;fill-opacity:1;stroke-width:0.0340259"
       d="m 325.57693,448.16795 c -0.0749,-0.0172 -0.25094,-0.0687 -0.3913,-0.1145 -0.14036,-0.0458 -0.32986,-0.0953 -0.42112,-0.11001 l -0.16592,-0.0268 0.57951,-0.22911 c 0.56594,-0.22374 1.64921,-0.60436 1.72004,-0.60436 0.0195,0 -0.004,0.0421 -0.0527,0.0936 -0.0951,0.10087 -0.16215,0.29806 -0.16246,0.47805 -7e-4,0.41188 -0.5127,0.64942 -1.10603,0.51313 z"
       id="path35" />
    <path
       style="fill:#2c3094;fill-opacity:1;stroke-width:0.0340259"
       d="m 327.75595,447.21785 c -0.14279,-0.0756 -0.34371,-0.15444 -0.4465,-0.17508 l -0.18687,-0.0375 0.55418,-0.17608 c 0.47196,-0.14995 0.84528,-0.27871 1.08785,-0.37522 0.0511,-0.0203 0.0502,-0.009 -0.009,0.10627 -0.0362,0.071 -0.0661,0.1909 -0.0666,0.26648 -10e-4,0.1922 -0.10824,0.41087 -0.23307,0.47542 -0.18641,0.0964 -0.41041,0.0695 -0.70053,-0.0843 z"
       id="path36" />
    <path
       style="fill:#2c3094;fill-opacity:1;stroke-width:0.0680519"
       d="m 345.10782,428.3508 c 0,-0.2735 0.48713,-1.43418 0.87534,-2.08563 0.52898,-0.88771 0.68985,-1.25761 0.68985,-1.58623 0,-0.34161 -0.1158,-0.54262 -0.45145,-0.78367 -0.32029,-0.23001 -0.44264,-0.42149 -0.64485,-1.00924 -0.17806,-0.51752 -0.15998,-0.66072 0.0316,-0.25048 0.23063,0.49384 0.47617,0.75299 1.09421,1.15484 0.7558,0.49144 0.88328,0.64061 0.83772,0.98031 -0.0418,0.31161 -0.30426,0.71507 -0.93386,1.43552 -0.77214,0.88357 -0.96137,1.14187 -1.23378,1.68412 -0.14563,0.28988 -0.26478,0.49709 -0.26478,0.46046 z"
       id="path37" />
    <path
       style="fill:#2c3094;fill-opacity:1;stroke-width:0.0680519"
       d="m 333.94731,424.55372 c -0.28516,-0.0696 -0.29218,-0.0764 -0.10208,-0.099 0.11229,-0.0133 0.5257,-0.12694 0.9187,-0.25248 0.74035,-0.23651 1.64827,-0.44541 1.9196,-0.44167 0.312,0.004 -0.17671,0.31314 -0.84332,0.53295 -0.52346,0.17259 -1.41578,0.36902 -1.55264,0.34177 -0.0187,-0.004 -0.17183,-0.0404 -0.34026,-0.0816 z"
       id="path38" />
    <path
       style="fill:#2c3094;fill-opacity:1;stroke-width:0.0680519"
       d="m 332.87038,423.43738 c -0.33824,-0.93435 -0.45715,-1.82889 -0.56337,-4.23845 -0.0893,-2.02508 -0.0436,-7.21703 0.0751,-8.54051 0.14621,-1.62995 0.39485,-2.62804 0.78071,-3.13393 0.10219,-0.13397 0.19656,-0.2328 0.20974,-0.21963 0.0132,0.0132 -0.0497,0.17596 -0.13968,0.36174 -0.44527,0.91923 -0.53635,2.31708 -0.53635,8.23182 0,4.81129 0.0521,6.25303 0.26648,7.37348 0.0538,0.28108 0.087,0.52184 0.0738,0.53503 -0.0132,0.0132 -0.0881,-0.15312 -0.16643,-0.36955 z"
       id="path39" />
    <path
       style="fill:#2c3094;fill-opacity:1;stroke-width:0.0680519"
       d="m 344.81046,418.33159 c -0.0634,-0.66453 -0.20668,-2.43317 -0.31842,-3.93031 -0.45624,-6.11282 -0.8178,-8.24533 -1.68353,-9.92945 -1.09029,-2.12099 -2.84674,-2.55022 -6.55808,-1.60263 -0.6602,0.16856 -2.70444,0.83053 -3.9632,1.28336 -0.80092,0.28813 -0.9335,0.31696 -1.30018,0.28275 l -0.40831,-0.0381 0.88468,-0.3318 c 2.83464,-1.06314 6.04185,-2.00781 7.52462,-2.21635 1.59553,-0.22441 2.96171,0.4025 3.92266,1.8 1.07645,1.56548 1.75932,4.69892 1.89122,8.6781 0.0624,1.88234 0.16925,7.16719 0.14541,7.19104 -0.0119,0.0119 -0.0735,-0.5221 -0.13687,-1.18663 z"
       id="path40" />
  </g>
</svg>
